<svg xmlns="http://www.w3.org/2000/svg" height="24" viewBox="0 -960 960 960" width="24"><path d="m600-163.077-240-84-158.308 61.231q-15.385 5.692-28.538-3.346Q160-198.23 160-214.615v-489.231q0-10.693 5.192-19.539 5.192-8.846 15.115-12.308L360-796.923l240 84 158.308-61.231q15.385-5.692 28.538 2.192Q800-764.077 800-748.462v495.385q0 11.462-6.346 19.923-6.346 8.462-17.038 11.923L600-163.077Zm-20-48.769v-468l-200-69.846v468l200 69.846Zm40 0L760-258v-474l-140 52.154v468ZM200-228l140-53.692v-468L200-702v474Zm420-451.846v468-468Zm-280-69.846v468-468Z"/></svg>